<svg width="48" height="48" viewBox="0 0 48 48" fill="none" xmlns="http://www.w3.org/2000/svg">
<rect width="48" height="48" rx="24" fill="white"/>
<path d="M13.4705 38C13.1625 38 12.9105 37.902 12.7145 37.706C12.5185 37.51 12.4205 37.258 12.4205 36.95V9.65C12.4205 9.342 12.5185 9.09 12.7145 8.894C12.9105 8.698 13.1625 8.6 13.4705 8.6H24.8945C28.5065 8.6 31.3485 9.44 33.4205 11.12C35.5205 12.772 36.5705 15.124 36.5705 18.176C36.5705 20.164 36.0805 21.844 35.1005 23.216C34.1485 24.588 32.8885 25.624 31.3205 26.324L37.1165 36.656C37.2005 36.824 37.2425 36.978 37.2425 37.118C37.2425 37.342 37.1445 37.552 36.9485 37.748C36.7805 37.916 36.5705 38 36.3185 38H30.7745C30.2425 38 29.8505 37.874 29.5985 37.622C29.3465 37.342 29.1645 37.09 29.0525 36.866L24.2645 27.626H19.9385V36.95C19.9385 37.258 19.8405 37.51 19.6445 37.706C19.4485 37.902 19.1965 38 18.8885 38H13.4705ZM19.9385 21.704H24.8105C26.1265 21.704 27.1065 21.382 27.7505 20.738C28.4225 20.094 28.7585 19.212 28.7585 18.092C28.7585 17 28.4365 16.118 27.7925 15.446C27.1765 14.774 26.1825 14.438 24.8105 14.438H19.9385V21.704Z" fill="#015AEB"/>
</svg>
